P1
# CREATOR: GIMP PNM Filter Version 1.1
96 64
1111111111111111111111111111111111111111111111111111111111111111111111
1111111111111111111111111111111111111111111111111111111111111111111111
1111111111111111111111111111111111111111111111111111111111111111111111
1111111111111111111111111111111111111111111111111111111111111111111111
1111111111111111111111111111111111111111111111111111111111111111111111
1111111111111111111111111111111111111111111111111111111111111111111111
1111111111111111111111111111111111111111111111111111111111111111111111
1111111111111111111111111111111111111111111111111111111111111111111111
1111111111111111111111111111111111111111111111111111111111111111111111
1111111111111111111111111111111111111111111111111111111111111111111111
1111111111111111111111111111111111111111111111111111111111111111111111
1111111111111111111111111111111111111111111111111111111111111111111111
1111111111111111111111111111111111111111111111111111111111111111111111
1111111111111111111111111111111111111111111111111111111111111111111111
1111111111111111111111111111111111111111111111111111111111111111111111
1111111111111111111111111111111111100111111110011111111111110001100011
1111111111111111111111111111111111111111111111111111111111111001111111
0001111111111111000110001111111111111111111111111111111111111111111111
1111111111111111100111111100011111111111110001100011111111111111111111
1111111111111111111111111111111111111111111001111111000111111111111100
0110001111111111111111111111111111111111111111111111111111111111111110
0111111100011111000001110001100011111000011111111111111111111111111111
1111111111111111111111111001111111000111000000001100011000111100000011
1111111111111111111111111111111111111111111111111110011000000001110001
1000110001100011100011001111111111111111111111111111111111111111111111
1111111000000000000110001000001100011000110000111001111111111111111111
1111111111111111111111111111111110000011110001100000000111000110001100
0111100111111111111111111111111111111111111111111111111111100111111100
0110000001111100011000110001111001111111111111111111111111111111111111
1111111111111110011111110001100001111111000110001100011110011111111111
1111111111111111111111111111111111111111000111111100011000111100110001
1000110001111001111111111111111111111111111111111111111111111111110001
1111110001110000000011000110001100001100111111111111111111111111111111
1111111111111111111111000111111100011111000001110001100011100000001111
1111111111111111111111111111111111111111111111110001111111111111111111
1111111111111111000011111111111111111111111111111111111111111111111111
1111111111111111111111111111111111111111111111111111111111111111111111
1111111111111111111111111111111111111111111111111111111111111111111111
1111111111111111111111111111111111111111111111111111111111111111111111
1111111111111111111111111111111111111111111111111111111111111111111111
1111111111111111111111111111111111111111111111111111111111111111111111
1111111111111111111111111111111111111111111111111111111111111111111111
1111111111111111111111111111111111111111111111111111111111111111111111
1111111111111111111111111111111111111111111111111111111111111111111111
1111111111111111111111111111111111111111111111111111111111111111111111
1111111111111111111111111111111111111111111111111111111111111111111111
1111111111111111111111111111111111111111111111111111111111111111111111
1111111111111111111111111111111111111111111111111111111111111111111111
1111111111111111111111111111111111111111111111111111111111111111111111
1111111111111111111111111111111111111111111111111111111111111111111111
1111111111111111111111111111111111111111111111111111111111111111111111
1111111111111111111111111111111111111111111111111111111111111111111111
1111111111111111111111110011111100111111000111111111111111111111110001
1111111100011001100110011111111111111111111111111100011110000111110001
1111111111111111111111000111111111000110011001100111111111111111111111
1111110001111000011111000111111111111111111111110001111111110001100110
0110011111111111111111111111111110011110000111100011111111111111111111
1111000111111111000110011001100111111111111111111111111111100011000001
1110001111110000111100100001110001111100000001100110011001111111111111
1111111111111110001100000111000111111000000111000000001100011100000000
1110011001100111111111111111111111111111110010001000110001111100011001
1100001100110001110011100011100110011001111111111111111111111111111100
1000100011000111100001110011001111001100011001111100111001100110011111
1111111111111111111111110010001000100011111000111100110011111111000110
0111110011100110011001111111111111111111111111111100000110001000111110
0011110011001111111100011001111100111001100110011111111111111111111111
1111111000011100000111111000111100110011111111000110011111001110011001
1001111111111111111111111111111110001111000001111110001111001100111111
1100011000111000111001100110011111111111111111111111111111100011110000
1111111000011001110011111111000111000000001111111111111111111111111111
1111111111111110001111100011111111000000011100111111110001111000000011
1001100110011111111111111111111111111111111111111001111111111000011111
0011111111111111111111111110011001100111111111111111111111111111111111
1111111111111111111111111111111111111111111111111111111111111111111111
1111111111111111111111111111111111111111111111111111111111111111111111
1111111111111111111111111111111111111111111111111111111111111111111111
1111111111111111111111111111111111111111111111111111111111111111111111
1111111111111111111111111111111111111111111111111111111111111111111111
1111111111111111111111111111111111111111111111111111111111111111111111
1111111111111111111111111111111111111111111111111111111111111111111111
1111111111111111111111111111111111111111111111111111111111111111111111
1111111111111111111111111111111111111111111111111111111111111111111111
1111111111111111111111111111111111111111111111111111111111111111111111
1111111111111111111111111111111111111111111111111111111111111111111111
1111111111111111111111111111111111111111111111111111111111111111111111
1111111111111111111111111111111111111111111111111111111111111111111111
1111111111111111111111111111111111111111111111111111111111111111111111
111111111111111111111111111111111111111111111111111111